HIERARCHY
ROOT Model
{
	OFFSET 0 0 0
	CHANNELS 6 Xposition Yposition Zposition Zrotation Xrotation Yrotation
	JOINT Model1
	{
		OFFSET 0 -2.25479 2.99384
		CHANNELS 3 Zrotation Xrotation Yrotation
		JOINT Model2
		{
			OFFSET 12.111 0 0
			CHANNELS 3 Zrotation Xrotation Yrotation
			JOINT Model3
			{
				OFFSET 11.5502 0 0
				CHANNELS 3 Zrotation Xrotation Yrotation
				JOINT Model4
				{
					OFFSET 11.781 0 0
					CHANNELS 3 Zrotation Xrotation Yrotation
					JOINT Model5
					{
						OFFSET 20.0601 0 0
						CHANNELS 3 Zrotation Xrotation Yrotation
						JOINT Model6
						{
							OFFSET 11.1962 0 0
							CHANNELS 3 Zrotation Xrotation Yrotation
							End Site
							{
								OFFSET 0 0 0
							}
						}
					}
					JOINT Model7
					{
						OFFSET 10.8223 0.417534 3.51114
						CHANNELS 3 Zrotation Xrotation Yrotation
						JOINT Model8
						{
							OFFSET -6.07944 0 0
							CHANNELS 3 Zrotation Xrotation Yrotation
							JOINT Model9
							{
								OFFSET -0.27742 10.39 -0.051239
								CHANNELS 3 Zrotation Xrotation Yrotation
								JOINT Model10
								{
									OFFSET -3.4391 -0.282043 1.86678
									CHANNELS 3 Zrotation Xrotation Yrotation
									JOINT Model11
									{
										OFFSET 13.0269 0 0
										CHANNELS 3 Zrotation Xrotation Yrotation
										JOINT Model12
										{
											OFFSET 10.8866 0 0
											CHANNELS 3 Zrotation Xrotation Yrotation
											JOINT Model13
											{
												OFFSET 16.7317 0 0
												CHANNELS 3 Zrotation Xrotation Yrotation
												JOINT Model14
												{
													OFFSET 11.8292 0 0
													CHANNELS 3 Zrotation Xrotation Yrotation
													JOINT Model15
													{
														OFFSET 4.82751 -3.73566 -0.836517
														CHANNELS 3 Zrotation Xrotation Yrotation
														JOINT Model16
														{
															OFFSET 3.75311 -0.0582886 -0.0186462
															CHANNELS 3 Zrotation Xrotation Yrotation
															JOINT Model17
															{
																OFFSET 2.88688 0.0192337 0.014801
																CHANNELS 3 Zrotation Xrotation Yrotation
																End Site
																{
																	OFFSET 0 0 0
																}
															}
														}
													}
													JOINT Model18
													{
														OFFSET 9.72197 -3.06458 0.23877
														CHANNELS 3 Zrotation Xrotation Yrotation
														JOINT Model19
														{
															OFFSET 4.61131 0 0
															CHANNELS 3 Zrotation Xrotation Yrotation
															JOINT Model20
															{
																OFFSET 2.8969 -7.62939e-006 0
																CHANNELS 3 Zrotation Xrotation Yrotation
																End Site
																{
																	OFFSET 0 0 0
																}
															}
														}
													}
													JOINT Model21
													{
														OFFSET 9.54431 -0.745064 0.588943
														CHANNELS 3 Zrotation Xrotation Yrotation
														JOINT Model22
														{
															OFFSET 5.33978 0 0
															CHANNELS 3 Zrotation Xrotation Yrotation
															JOINT Model23
															{
																OFFSET 3.03619 7.62939e-006 0
																CHANNELS 3 Zrotation Xrotation Yrotation
																End Site
																{
																	OFFSET 0 0 0
																}
															}
														}
													}
													JOINT Model24
													{
														OFFSET 9.47759 1.51286 0.485123
														CHANNELS 3 Zrotation Xrotation Yrotation
														JOINT Model25
														{
															OFFSET 4.96136 7.62939e-006 0
															CHANNELS 3 Zrotation Xrotation Yrotation
															JOINT Model26
															{
																OFFSET 2.51966 0 0
																CHANNELS 3 Zrotation Xrotation Yrotation
																End Site
																{
																	OFFSET 0 0 0
																}
															}
														}
													}
													JOINT Model27
													{
														OFFSET 9.34247 3.34117 -0.239273
														CHANNELS 3 Zrotation Xrotation Yrotation
														JOINT Model28
														{
															OFFSET 3.2826 2.28882e-005 0
															CHANNELS 3 Zrotation Xrotation Yrotation
															JOINT Model29
															{
																OFFSET 2.1292 0 0
																CHANNELS 3 Zrotation Xrotation Yrotation
																End Site
																{
																	OFFSET 0 0 0
																}
															}
														}
													}
												}
											}
										}
									}
								}
							}
						}
					}
					JOINT Model30
					{
						OFFSET 10.8223 0.4179 -3.51106
						CHANNELS 3 Zrotation Xrotation Yrotation
						JOINT Model31
						{
							OFFSET 6.07944 0 0
							CHANNELS 3 Zrotation Xrotation Yrotation
							JOINT Model32
							{
								OFFSET 0.27742 -10.39 0.051239
								CHANNELS 3 Zrotation Xrotation Yrotation
								JOINT Model33
								{
									OFFSET 3.4391 0.282043 -1.86678
									CHANNELS 3 Zrotation Xrotation Yrotation
									JOINT Model34
									{
										OFFSET -13.0269 0 0
										CHANNELS 3 Zrotation Xrotation Yrotation
										JOINT Model35
										{
											OFFSET -10.8866 0 0
											CHANNELS 3 Zrotation Xrotation Yrotation
											JOINT Model36
											{
												OFFSET -16.7317 0 0
												CHANNELS 3 Zrotation Xrotation Yrotation
												JOINT Model37
												{
													OFFSET -11.8292 0 0
													CHANNELS 3 Zrotation Xrotation Yrotation
													JOINT Model38
													{
														OFFSET -4.82751 3.73566 0.836517
														CHANNELS 3 Zrotation Xrotation Yrotation
														JOINT Model39
														{
															OFFSET -3.75311 0.0582886 0.0186462
															CHANNELS 3 Zrotation Xrotation Yrotation
															JOINT Model40
															{
																OFFSET -2.88689 -0.0192337 -0.014801
																CHANNELS 3 Zrotation Xrotation Yrotation
																End Site
																{
																	OFFSET 0 0 0
																}
															}
														}
													}
													JOINT Model41
													{
														OFFSET -9.72197 3.06459 -0.23877
														CHANNELS 3 Zrotation Xrotation Yrotation
														JOINT Model42
														{
															OFFSET -4.6113 0 0
															CHANNELS 3 Zrotation Xrotation Yrotation
															JOINT Model43
															{
																OFFSET -2.8969 0 0
																CHANNELS 3 Zrotation Xrotation Yrotation
																End Site
																{
																	OFFSET 0 0 0
																}
															}
														}
													}
													JOINT Model44
													{
														OFFSET -9.5443 0.745064 -0.588943
														CHANNELS 3 Zrotation Xrotation Yrotation
														JOINT Model45
														{
															OFFSET -5.33978 0 0
															CHANNELS 3 Zrotation Xrotation Yrotation
															JOINT Model46
															{
																OFFSET -3.03619 -1.52588e-005 0
																CHANNELS 3 Zrotation Xrotation Yrotation
																End Site
																{
																	OFFSET 0 0 0
																}
															}
														}
													}
													JOINT Model47
													{
														OFFSET -9.47758 -1.51286 -0.485123
														CHANNELS 3 Zrotation Xrotation Yrotation
														JOINT Model48
														{
															OFFSET -4.96136 -1.52588e-005 0
															CHANNELS 3 Zrotation Xrotation Yrotation
															JOINT Model49
															{
																OFFSET -2.51965 0 0
																CHANNELS 3 Zrotation Xrotation Yrotation
																End Site
																{
																	OFFSET 0 0 0
																}
															}
														}
													}
													JOINT Model50
													{
														OFFSET -9.34245 -3.34118 0.239273
														CHANNELS 3 Zrotation Xrotation Yrotation
														JOINT Model51
														{
															OFFSET -3.28259 -2.28882e-005 0
															CHANNELS 3 Zrotation Xrotation Yrotation
															JOINT Model52
															{
																OFFSET -2.1292 0 0
																CHANNELS 3 Zrotation Xrotation Yrotation
																End Site
																{
																	OFFSET 0 0 0
																}
															}
														}
													}
												}
											}
										}
									}
								}
							}
						}
					}
				}
			}
		}
	}
	JOINT Model53
	{
		OFFSET 4.38026 -2.14632 -1.11516
		CHANNELS 3 Zrotation Xrotation Yrotation
		JOINT Model54
		{
			OFFSET 0 0 4.95
			CHANNELS 3 Zrotation Xrotation Yrotation
			JOINT Model55
			{
				OFFSET 18.5642 0 0
				CHANNELS 3 Zrotation Xrotation Yrotation
				JOINT Model56
				{
					OFFSET 21.2884 0 1.52588e-005
					CHANNELS 3 Zrotation Xrotation Yrotation
					JOINT Model57
					{
						OFFSET 30.261 0 0
						CHANNELS 3 Zrotation Xrotation Yrotation
						JOINT Model58
						{
							OFFSET 11.7259 0 0
							CHANNELS 3 Zrotation Xrotation Yrotation
							JOINT Model59
							{
								OFFSET 10.682 0 0
								CHANNELS 3 Zrotation Xrotation Yrotation
								End Site
								{
									OFFSET 0 0 0
								}
							}
						}
					}
				}
			}
		}
	}
	JOINT Model60
	{
		OFFSET -4.38026 -2.14632 -1.11516
		CHANNELS 3 Zrotation Xrotation Yrotation
		JOINT Model61
		{
			OFFSET 0 0 -4.95
			CHANNELS 3 Zrotation Xrotation Yrotation
			JOINT Model62
			{
				OFFSET -18.5642 0 0
				CHANNELS 3 Zrotation Xrotation Yrotation
				JOINT Model63
				{
					OFFSET -21.2884 0 -1.52588e-005
					CHANNELS 3 Zrotation Xrotation Yrotation
					JOINT Model64
					{
						OFFSET -30.261 0 0
						CHANNELS 3 Zrotation Xrotation Yrotation
						JOINT Model65
						{
							OFFSET -11.7259 0 0
							CHANNELS 3 Zrotation Xrotation Yrotation
							JOINT Model66
							{
								OFFSET -10.682 0 0
								CHANNELS 3 Zrotation Xrotation Yrotation
								End Site
								{
									OFFSET 0 0 0
								}
							}
						}
					}
				}
			}
		}
	}
}
MOTION
Frames: 4
Frame Time: 0.033333
-158.285 164.682 -127.151 89.7756 1.35721 90.244 -180 4.29621e-031 -90 0.101016 -0.920537 0.0388629 0.202695 -1.84144 0.0793645 0.202695 -1.841 0.0793629 19.1637 6.98485 2.6366 0.357276 6.96274 2.80775 120.092 75.5343 58.4939 6.14328 -17.8405 -5.41804 -167.277 84.4999 48.8109 148.849 3.05952 -22.7124 -4.21011e-007 25.131 3.44716e-005 -0.0544106 -5.66427 -0.497949 -6.15849e-007 -8.43262 -9.95196e-007 4.52735 0.0324905 0.821938 -72.0648 39.0385 39.3397 33.3638 2.10362 14.835 0.588947 0.308273 6.35287 -99.6409 81.413 100.35 -0.0181409 2.76349e-005 -0.117315 -0.124139 0.00241094 -0.799296 -79.8382 79.5773 80.5374 -0.000225778 -0.000221052 2.21707e-005 -0.000956228 0.00012272 -2.73529e-005 -66.7416 80.4058 67.2171 -0.000437132 1.5806e-005 -2.73447e-005 -0.000136604 -0.00010948 -5.4674e-005 -6.42159 81.2158 8.01779 -0.000218564 1.66599e-005 0.000212115 0.000901586 -0.000185138 -0.0002186 -59.9282 75.5373 58.5147 9.96527 -9.5225 -3.48422 -167.277 84.4999 48.8109 150.191 -14.381 -16.7613 7.01781e-006 -0.138982 2.91372e-005 -1.54705 9.868 -0.12081 -5.91677e-006 14.8299 2.5741e-006 4.78157 -0.0662498 -1.58672 -72.0648 39.0385 39.3397 33.3638 2.10361 14.835 0.588946 0.308273 6.35287 -99.6409 81.413 100.35 -0.0181409 3.01304e-005 -0.117315 -0.124139 0.00241119 -0.799296 -79.8382 79.5773 80.5374 -0.000260647 -0.000218516 2.35813e-005 -0.000956227 0.000123064 -2.73059e-005 -66.7416 80.4058 67.2171 -0.000437132 1.49312e-005 -2.73104e-005 -0.000136604 -0.000109215 -5.46275e-005 -6.42159 81.2158 8.01779 -0.000218556 1.96433e-005 0.000212307 0.000901596 -0.000191158 -0.000218552 0.000811311 0.56661 89.91 -24.3814 -0.708806 -1.59197 -6.92758e-008 -0.18833 -1.05152e-009 52.2304 -0.734904 -0.00673081 -3.84642e-008 -1.19735 -2.76789e-008 -78.3291 4.3902 -3.14592 -35.4947 5.99071e-007 -8.22857e-008 -180 -0.566579 -90.09 -24.2224 -15.7372 -15.0056 -6.06892e-006 -16.2795 -9.47762e-007 51.5285 9.03484 -0.00641285 5.93824e-007 13.4581 8.55178e-007 -77.2662 8.53574 -4.9937 -35.4947 -6.38688e-008 -3.28952e-008 
-158.28 164.679 -127.111 89.7697 1.44323 90.2848 -180 4.29621e-031 -90 0.0786536 -0.922338 0.0165665 0.157603 -1.84509 0.0344062 0.157603 -1.84465 0.034405 19.4352 6.95378 2.29707 0.348821 6.85115 3.67774 120.092 75.5343 58.4939 6.38744 -17.5989 -5.35224 -167.277 84.4999 48.8109 149.071 3.06648 -22.6387 -4.87345e-007 25.2307 3.44998e-005 -0.0591003 -5.65213 -0.541906 -6.1553e-007 -8.41447 -9.95149e-007 4.498 0.025309 0.644452 -72.0648 39.0385 39.3397 33.3638 2.10362 14.835 0.588947 0.308273 6.35287 -99.6409 81.413 100.35 -0.0181409 2.76349e-005 -0.117315 -0.124139 0.00241094 -0.799296 -79.8382 79.5773 80.5374 -0.000225778 -0.000221052 2.21707e-005 -0.000956228 0.00012272 -2.73529e-005 -66.7416 80.4058 67.2171 -0.000437132 1.5806e-005 -2.73447e-005 -0.000136604 -0.00010948 -5.4674e-005 -6.42159 81.2158 8.01779 -0.000218564 1.66599e-005 0.000212115 0.000901586 -0.000185138 -0.0002186 -59.9282 75.5373 58.5147 9.56438 -9.68386 -3.4904 -167.277 84.4999 48.8109 150.029 -14.3569 -17.0547 7.01881e-006 -0.140945 2.91372e-005 -1.54046 10.0407 -0.124157 -5.92883e-006 15.089 2.57721e-006 4.66541 -0.0669349 -1.64308 -72.0648 39.0385 39.3397 33.3638 2.10361 14.835 0.588946 0.308273 6.35287 -99.6409 81.413 100.35 -0.0181409 3.01304e-005 -0.117315 -0.124139 0.00241119 -0.799296 -79.8382 79.5773 80.5374 -0.000260647 -0.000218516 2.35813e-005 -0.000956227 0.000123064 -2.73059e-005 -66.7416 80.4058 67.2171 -0.000437132 1.49312e-005 -2.73104e-005 -0.000136604 -0.000109215 -5.46275e-005 -6.42159 81.2158 8.01779 -0.000218556 1.96433e-005 0.000212307 0.000901596 -0.000191158 -0.000218552 0.000811311 0.56661 89.91 -24.4358 -0.822211 -1.76022 -6.92774e-008 -0.277333 -1.05152e-009 52.2646 -0.634175 -0.00672698 -3.83912e-008 -1.04631 -2.76775e-008 -78.2918 4.61112 -3.24152 -35.4947 6.01159e-007 -6.66042e-008 -180 -0.566579 -90.09 -24.1866 -16.0525 -15.2355 -6.07516e-006 -16.6412 -9.49532e-007 51.5269 9.28164 -0.00643071 5.88133e-007 13.8283 8.5652e-007 -77.1518 8.73228 -5.08767 -35.4947 -8.46766e-008 -3.90814e-008 
-158.266 164.672 -127.093 89.7019 1.46866 90.2728 -180 4.29621e-031 -90 0.06151 -0.917556 0.000464852 0.12305 -1.83555 0.00191538 0.123049 -1.83511 0.00191444 19.4852 6.92279 2.23125 0.490049 6.80381 3.92333 120.092 75.5343 58.4939 6.4982 -17.4527 -5.31289 -167.277 84.4999 48.8109 149.163 3.05171 -22.6293 -4.97967e-007 25.2467 3.45043e-005 -0.0598991 -5.66412 -0.548184 -6.15846e-007 -8.43247 -9.95196e-007 4.55743 0.0231284 0.581239 -72.0648 39.0385 39.3397 33.3638 2.10362 14.835 0.588947 0.308273 6.35287 -99.6409 81.413 100.35 -0.0181409 2.76349e-005 -0.117315 -0.124139 0.00241094 -0.799296 -79.8382 79.5773 80.5374 -0.000225778 -0.000221052 2.21707e-005 -0.000956228 0.00012272 -2.73529e-005 -66.7416 80.4058 67.2171 -0.000437132 1.5806e-005 -2.73447e-005 -0.000136604 -0.00010948 -5.4674e-005 -6.42159 81.2158 8.01779 -0.000218564 1.66599e-005 0.000212115 0.000901586 -0.000185138 -0.0002186 -59.9282 75.5373 58.5147 9.40057 -9.95789 -3.54176 -167.277 84.4999 48.8109 149.787 -14.3052 -17.139 7.01837e-006 -0.140097 2.91372e-005 -1.53753 10.1171 -0.125657 -5.93418e-006 15.2037 2.5786e-006 4.64104 -0.070223 -1.73284 -72.0648 39.0385 39.3397 33.3638 2.10361 14.835 0.588946 0.308273 6.35287 -99.6409 81.413 100.35 -0.0181409 3.01304e-005 -0.117315 -0.124139 0.00241119 -0.799296 -79.8382 79.5773 80.5374 -0.000260647 -0.000218516 2.35813e-005 -0.000956227 0.000123064 -2.73059e-005 -66.7416 80.4058 67.2171 -0.000437132 1.49312e-005 -2.73104e-005 -0.000136604 -0.000109215 -5.46275e-005 -6.42159 81.2158 8.01779 -0.000218556 1.96433e-005 0.000212307 0.000901596 -0.000191158 -0.000218552 0.000811311 0.56661 89.91 -24.5371 -0.882485 -1.82086 -6.92786e-008 -0.340684 -1.05153e-009 52.3251 -0.571517 -0.00672447 -3.83458e-008 -0.952406 -2.76767e-008 -78.2489 4.65272 -3.26013 -35.4947 6.05982e-007 -4.70025e-008 -180 -0.566579 -90.09 -24.2932 -16.0189 -15.2645 -6.07443e-006 -16.5987 -9.49321e-007 51.5964 9.29 -0.00644176 5.87942e-007 13.8407 8.56566e-007 -77.0657 8.43407 -4.95988 -35.4947 -1.2444e-007 -5.15316e-008 
-158.248 164.667 -127.081 89.6357 1.44251 90.2335 -180 4.29621e-031 -90 0.0598507 -0.909558 -0.0180433 0.119436 -1.81957 -0.0351428 0.119435 -1.81913 -0.0351438 19.3243 6.88443 2.44016 0.798964 6.79764 3.76161 120.092 75.5343 58.4939 6.73414 -17.3784 -5.29373 -167.277 84.4999 48.8109 149.187 2.91959 -22.5469 -3.76178e-007 25.0635 3.44526e-005 -0.0527304 -5.60019 -0.487534 -6.14162e-007 -8.33649 -9.9495e-007 4.72306 0.0234288 0.56812 -72.0648 39.0385 39.3397 33.3638 2.10362 14.835 0.588947 0.308273 6.35287 -99.6409 81.413 100.35 -0.0181409 2.76349e-005 -0.117315 -0.124139 0.00241094 -0.799296 -79.8382 79.5773 80.5374 -0.000225778 -0.000221052 2.21707e-005 -0.000956228 0.00012272 -2.73529e-005 -66.7416 80.4058 67.2171 -0.000437132 1.5806e-005 -2.73447e-005 -0.000136604 -0.00010948 -5.4674e-005 -6.42159 81.2158 8.01779 -0.000218564 1.66599e-005 0.000212115 0.000901586 -0.000185138 -0.0002186 -59.9282 75.5373 58.5147 9.23268 -10.2339 -3.5942 -167.277 84.4999 48.8109 149.477 -14.2379 -17.2264 7.01772e-006 -0.138802 2.91372e-005 -1.53591 10.1589 -0.126493 -5.93711e-006 15.2665 2.57937e-006 4.71942 -0.0717998 -1.74229 -72.0648 39.0385 39.3397 33.3638 2.10361 14.835 0.588946 0.308273 6.35287 -99.6409 81.413 100.35 -0.0181409 3.01304e-005 -0.117315 -0.124139 0.00241119 -0.799296 -79.8382 79.5773 80.5374 -0.000260647 -0.000218516 2.35813e-005 -0.000956227 0.000123064 -2.73059e-005 -66.7416 80.4058 67.2171 -0.000437132 1.49312e-005 -2.73104e-005 -0.000136604 -0.000109215 -5.46275e-005 -6.42159 81.2158 8.01779 -0.000218556 1.96433e-005 0.000212307 0.000901596 -0.000191158 -0.000218552 0.000811311 0.56661 89.91 -24.6168 -0.910865 -1.8292 -6.92793e-008 -0.381244 -1.05154e-009 52.3853 -0.542928 -0.00672302 -3.83252e-008 -0.909608 -2.76764e-008 -78.2161 4.54062 -3.21233 -35.4947 6.13129e-007 -2.40685e-008 -180 -0.566579 -90.09 -24.4252 -15.978 -15.3349 -6.07325e-006 -16.5304 -9.48985e-007 51.6914 9.32364 -0.00645112 5.87167e-007 13.8911 8.56752e-007 -76.9301 8.08562 -4.81182 -35.4947 -1.81773e-007 -6.97873e-008 
